<?xml version="1.0" encoding="UTF-8"?>
<svg xmlns="http://www.w3.org/2000/svg" viewBox="0 0 900 320" width="900" height="320">
  <rect width="900" height="320" fill="#ffffff"/>
  <g font-family="Segoe UI, Arial, sans-serif" font-size="12" fill="#111">
    <rect x="40" y="40" width="150" height="60" rx="6" fill="#e8f0fe" stroke="#2b6cb0" />
    <text x="115" y="75" text-anchor="middle">Repository Agent</text>

    <rect x="230" y="40" width="150" height="60" rx="6" fill="#e6fffa" stroke="#0694a2" />
    <text x="305" y="75" text-anchor="middle">Analysis Agent</text>

    <rect x="420" y="40" width="150" height="60" rx="6" fill="#fff7ed" stroke="#d97706" />
    <text x="495" y="75" text-anchor="middle">Writer Agent</text>

    <rect x="610" y="40" width="150" height="60" rx="6" fill="#fef3c7" stroke="#a16207" />
    <text x="685" y="75" text-anchor="middle">PDF Agent</text>

    <rect x="420" y="160" width="150" height="60" rx="6" fill="#f3f4f6" stroke="#374151" />
    <text x="495" y="195" text-anchor="middle">Evaluator Agent</text>

    <rect x="40" y="160" width="150" height="60" rx="6" fill="#eef2ff" stroke="#4338ca" />
    <text x="115" y="195" text-anchor="middle">LangGraph Coordinator</text>

    <defs>
      <marker id="arrow" markerWidth="10" markerHeight="10" refX="8" refY="5" orient="auto">
        <path d="M0,0 L10,5 L0,10 z" fill="#222" />
      </marker>
    </defs>

    <line x1="190" y1="70" x2="230" y2="70" stroke="#333" stroke-width="2" marker-end="url(#arrow)" />
    <line x1="380" y1="70" x2="420" y2="70" stroke="#333" stroke-width="2" marker-end="url(#arrow)" />
    <line x1="570" y1="70" x2="610" y2="70" stroke="#333" stroke-width="2" marker-end="url(#arrow)" />
    <line x1="495" y1="100" x2="495" y2="160" stroke="#333" stroke-width="2" marker-end="url(#arrow)" />

    <line x1="115" y1="100" x2="115" y2="160" stroke="#666" stroke-dasharray="4 4" stroke-width="1" marker-end="url(#arrow)" />

    <text x="450" y="300" font-size="11" fill="#334155" text-anchor="middle">Data flow and coordination between agents (MCP messages via LangGraph)</text>
  </g>
</svg>